<?xml version="1.0" encoding="UTF-8" standalone="no"?>
<!DOCTYPE svg PUBLIC "-//W3C//DTD SVG 1.1//EN"
 "http://www.w3.org/Graphics/SVG/1.1/DTD/svg11.dtd">
<!-- Generated by graphviz version 4.0.0 (0)
 -->
<!-- Title: dependency&#45;cruiser output Pages: 1 -->
<svg width="219pt" height="171pt"
 viewBox="0.00 0.00 219.00 171.00" xmlns="http://www.w3.org/2000/svg" xmlns:xlink="http://www.w3.org/1999/xlink">
<g id="graph0" class="graph" transform="scale(1 1) rotate(0) translate(4 167)">
<title>dependency&#45;cruiser output</title>
<polygon fill="white" stroke="transparent" points="-4,4 -4,-167 215,-167 215,4 -4,4"/>
<g id="clust1" class="cluster">
<title>cluster_@domain</title>
<path fill="#ffffff" stroke="black" stroke-width="2" d="M129,-69C129,-69 191,-69 191,-69 197,-69 203,-75 203,-81 203,-81 203,-143 203,-143 203,-149 197,-155 191,-155 191,-155 129,-155 129,-155 123,-155 117,-149 117,-143 117,-143 117,-81 117,-81 117,-75 123,-69 129,-69"/>
<text text-anchor="middle" x="160" y="-143.8" font-family="Helvetica,sans-Serif" font-weight="bold" font-size="9.00">@domain</text>
</g>
<g id="clust2" class="cluster">
<title>cluster_@domain/src</title>
<path fill="#ffffff" stroke="black" stroke-width="2" d="M137,-77C137,-77 183,-77 183,-77 189,-77 195,-83 195,-89 195,-89 195,-117 195,-117 195,-123 189,-129 183,-129 183,-129 137,-129 137,-129 131,-129 125,-123 125,-117 125,-117 125,-89 125,-89 125,-83 131,-77 137,-77"/>
<text text-anchor="middle" x="160" y="-117.8" font-family="Helvetica,sans-Serif" font-weight="bold" font-size="9.00">src</text>
</g>
<g id="clust3" class="cluster">
<title>cluster_packages</title>
<path fill="#ffffff" stroke="black" stroke-width="2" d="M31.5,-26C31.5,-26 77.5,-26 77.5,-26 83.5,-26 89.5,-32 89.5,-38 89.5,-38 89.5,-126 89.5,-126 89.5,-132 83.5,-138 77.5,-138 77.5,-138 31.5,-138 31.5,-138 25.5,-138 19.5,-132 19.5,-126 19.5,-126 19.5,-38 19.5,-38 19.5,-32 25.5,-26 31.5,-26"/>
<text text-anchor="middle" x="54.5" y="-126.8" font-family="Helvetica,sans-Serif" font-weight="bold" font-size="9.00">packages</text>
</g>
<!-- .dependency&#45;cruiser.js -->
<g id="node1" class="node">
<title>.dependency&#45;cruiser.js</title>
<g id="a_node1"><a xlink:href=".dependency-cruiser.js" xlink:title=".dependency&#45;cruiser.js">
<path fill="#ccffcc" stroke="black" d="M103,-18C103,-18 6,-18 6,-18 3,-18 0,-15 0,-12 0,-12 0,-6 0,-6 0,-3 3,0 6,0 6,0 103,0 103,0 106,0 109,-3 109,-6 109,-6 109,-12 109,-12 109,-15 106,-18 103,-18"/>
<text text-anchor="middle" x="54.5" y="-6.8" font-family="Helvetica,sans-Serif" font-size="9.00">.dependency&#45;cruiser.js</text>
</a>
</g>
</g>
<!-- @domain/src/index -->
<g id="node2" class="node">
<title>@domain/src/index</title>
<g id="a_node2"><a xlink:title="index">
<path fill="#ffffcc" stroke="red" d="M181,-103C181,-103 139,-103 139,-103 136,-103 133,-100 133,-97 133,-97 133,-91 133,-91 133,-88 136,-85 139,-85 139,-85 181,-85 181,-85 184,-85 187,-88 187,-91 187,-91 187,-97 187,-97 187,-100 184,-103 181,-103"/>
<text text-anchor="start" x="148.5" y="-91.8" font-family="Helvetica,sans-Serif" font-size="9.00" fill="red">index</text>
</a>
</g>
</g>
<!-- packages/data -->
<g id="node3" class="node">
<title>packages/data</title>
<g id="a_node3"><a xlink:href="packages/data" xlink:title="data">
<polygon fill="#ccffcc" stroke="black" points="81.5,-112 29.5,-112 27.5,-110 27.5,-94 79.5,-94 81.5,-96 81.5,-112"/>
<polyline fill="none" stroke="black" points="79.5,-110 27.5,-110 "/>
<polyline fill="none" stroke="black" points="79.5,-110 79.5,-94 "/>
<polyline fill="none" stroke="black" points="79.5,-110 81.5,-112 "/>
<text text-anchor="start" x="45" y="-100.8" font-family="Helvetica,sans-Serif" font-size="9.00">data</text>
</a>
</g>
</g>
<!-- packages/data&#45;&gt;@domain/src/index -->
<g id="edge1" class="edge">
<title>packages/data&#45;&gt;@domain/src/index</title>
<path fill="none" stroke="#000000" stroke-width="2" stroke-opacity="0.200000" d="M81.62,-100.73C95.35,-99.54 112.29,-98.06 126.83,-96.8"/>
<polygon fill="#000000" fill-opacity="0.200000" stroke="#000000" stroke-width="2" stroke-opacity="0.200000" points="127.1,-98.88 132.89,-96.27 126.73,-94.7 127.1,-98.88"/>
</g>
<!-- packages/domain -->
<g id="node4" class="node">
<title>packages/domain</title>
<g id="a_node4"><a xlink:href="packages/domain" xlink:title="domain">
<polygon fill="#ccffcc" stroke="black" points="81.5,-82 29.5,-82 27.5,-80 27.5,-64 79.5,-64 81.5,-66 81.5,-82"/>
<polyline fill="none" stroke="black" points="79.5,-80 27.5,-80 "/>
<polyline fill="none" stroke="black" points="79.5,-80 79.5,-64 "/>
<polyline fill="none" stroke="black" points="79.5,-80 81.5,-82 "/>
<text text-anchor="start" x="39" y="-70.8" font-family="Helvetica,sans-Serif" font-size="9.00">domain</text>
</a>
</g>
</g>
<!-- packages/ui -->
<g id="node5" class="node">
<title>packages/ui</title>
<g id="a_node5"><a xlink:href="packages/ui" xlink:title="ui">
<polygon fill="#ccffcc" stroke="black" points="81.5,-52 29.5,-52 27.5,-50 27.5,-34 79.5,-34 81.5,-36 81.5,-52"/>
<polyline fill="none" stroke="black" points="79.5,-50 27.5,-50 "/>
<polyline fill="none" stroke="black" points="79.5,-50 79.5,-34 "/>
<polyline fill="none" stroke="black" points="79.5,-50 81.5,-52 "/>
<text text-anchor="start" x="50.5" y="-40.8" font-family="Helvetica,sans-Serif" font-size="9.00">ui</text>
</a>
</g>
</g>
<!-- packages/ui&#45;&gt;@domain/src/index -->
<g id="edge3" class="edge">
<title>packages/ui&#45;&gt;@domain/src/index</title>
<path fill="none" stroke="#000000" stroke-width="2" stroke-opacity="0.200000" d="M81.75,-48.4C90.65,-50.74 100.48,-53.9 109,-58 121.64,-64.08 134.45,-73.38 143.94,-81"/>
<polygon fill="#000000" fill-opacity="0.200000" stroke="#000000" stroke-width="2" stroke-opacity="0.200000" points="142.61,-82.63 148.58,-84.81 145.27,-79.38 142.61,-82.63"/>
</g>
<!-- path -->
<g id="node6" class="node">
<title>path</title>
<g id="a_node6"><a xlink:title="path">
<path fill="#ffffcc" stroke="grey" d="M181,-52C181,-52 139,-52 139,-52 136,-52 133,-49 133,-46 133,-46 133,-40 133,-40 133,-37 136,-34 139,-34 139,-34 181,-34 181,-34 184,-34 187,-37 187,-40 187,-40 187,-46 187,-46 187,-49 184,-52 181,-52"/>
<text text-anchor="middle" x="160" y="-40.8" font-family="Helvetica,sans-Serif" font-size="9.00" fill="grey">path</text>
</a>
</g>
</g>
<!-- packages/ui&#45;&gt;path -->
<g id="edge2" class="edge">
<title>packages/ui&#45;&gt;path</title>
<path fill="none" stroke="#000000" stroke-dasharray="5,2" stroke-opacity="0.200000" d="M81.62,-43C95.35,-43 112.29,-43 126.83,-43"/>
<polygon fill="#000000" fill-opacity="0.200000" stroke="#000000" stroke-opacity="0.200000" points="126.89,-45.1 132.89,-43 126.89,-40.9 126.89,-45.1"/>
</g>
</g>
</svg>
